#!OML:ASF H:\MichaelJackson\Top Level 1\Subject 1\Session 1\male.ASF
:FULLY-SPECIFIED
:DEGREES
124
root 20.5109 16.8931 -19.1352 10.0504 -11.3839 -2.03398
lowerback -3.04332 4.45833 -6.06812
upperback -1.21557 6.11226 0.65957
thorax -0.260708 3.09667 4.19274
lowerneck -10.8621 0.0680656 3.56049
upperneck 20.0978 -0.304972 -1.3749
head 7.99516 -0.00812168 -1.0815
rclavicle 3.80176e-015 -9.93923e-016
rhumerus -24.1743 53.4415 -95.1149
rradius 113.592
rwrist -17.0234
rhand -13.9214 -13.0185
rfingers 7.12502
rthumb 12.2049 -42.6424
lclavicle 3.80176e-015 -9.93923e-016
lhumerus -56.7726 -33.0328 116.619
lradius 69.791
lwrist 21.4764
lhand 14.6614 22.478
lfingers 7.12502
lthumb 39.5329 47.8433
rfemur -26.9665 3.41454 16.7468
rtibia 31.5736
rfoot -26.6655 -4.8902
rtoes 35.9949
lfemur -20.6261 1.9026 -16.9593
ltibia 32.1596
lfoot -26.1229 14.598
ltoes 24.5832
125
root 20.5286 16.89 -19.1564 10.0997 -12.0567 -2.10898
lowerback -2.95351 4.54441 -6.20507
upperback -1.1927 6.22536 0.578311
thorax -0.306108 3.15419 4.17745
lowerneck -10.9306 -0.403207 3.5583
upperneck 20.1061 -1.02498 -1.07308
head 7.9937 -0.321479 -1.05314
rclavicle -6.78353e-015 -2.36554e-014
rhumerus -22.311 54.3417 -94.1593
rradius 114.438
rwrist -18.6281
rhand -16.1659 -12.9772
rfingers 7.12502
rthumb 10.0401 -42.7177
lclavicle -6.78353e-015 -2.36554e-014
lhumerus -56.6057 -33.1033 116.361
lradius 69.3918
lwrist 21.564
lhand 13.151 22.2153
lfingers 7.12502
lthumb 38.1084 47.985
rfemur -27.3321 2.9731 16.8951
rtibia 31.7615
rfoot -26.663 -3.92661
rtoes 36.66
lfemur -20.7117 2.30236 -16.994
ltibia 32.2807
lfoot -26.3179 14.6741
ltoes 25.2127
126
root 20.5458 16.8865 -19.1764 10.1429 -12.6944 -2.18435
lowerback -2.87026 4.63574 -6.32755
upperback -1.171 6.34517 0.494689
thorax -0.348166 3.21487 4.15191
lowerneck -10.9851 -0.867062 3.56853
upperneck 20.113 -1.7356 -0.775167
head 7.9919 -0.629612 -1.02714
rclavicle -6.50771e-014 -2.18663e-015
rhumerus -20.5319 55.1255 -93.2592
rradius 115.275
rwrist -20.2083
rhand -18.4912 -12.8294
rfingers 7.12502
rthumb 7.79625 -42.6656
lclavicle -6.50771e-014 -2.18663e-015
lhumerus -56.4652 -33.2265 116.136
lradius 69.0192
lwrist 21.6512
lhand 11.6634 21.9973
lfingers 7.12502
lthumb 36.7023 48.1381
rfemur -27.6822 2.45516 17.0712
rtibia 31.9698
rfoot -26.689 -3.03147
rtoes 37.3153
lfemur -20.7977 2.66811 -17.0249
ltibia 32.4162
lfoot -26.5051 14.7686
ltoes 25.7588
127
root 20.5627 16.8824 -19.195 10.1824 -13.288 -2.2588
lowerback -2.79391 4.72907 -6.43247
upperback -1.15158 6.46731 0.409204
thorax -0.386935 3.27654 4.11497
lowerneck -11.0282 -1.3246 3.58192
upperneck 20.1187 -2.43774 -0.476128
head 7.99023 -0.933217 -1.00035
rclavicle -6.97237e-014 2.78299e-015
rhumerus -18.8687 55.8048 -92.4414
rradius 116.113
rwrist -21.7882
rhand -20.7679 -12.5704
rfingers 7.12502
rthumb 5.59849 -42.4765
lclavicle -6.97237e-014 2.78299e-015
lhumerus -56.3484 -33.3968 115.937
lradius 68.6823
lwrist 21.7467
lhand 10.2636 21.8821
lfingers 7.12502
lthumb 35.3763 48.3494
rfemur -28.0183 1.85239 17.2753
rtibia 32.1999
rfoot -26.744 -2.25916
rtoes 37.9852
lfemur -20.8891 2.99674 -17.0517
ltibia 32.5663
lfoot -26.6651 14.8869
ltoes 26.0822
128
root 20.5792 16.8779 -19.2123 10.2183 -13.8342 -2.3249
lowerback -2.72414 4.82219 -6.52496
upperback -1.13677 6.58894 0.321569
thorax -0.4251 3.33795 4.06905
lowerneck -11.0556 -1.77376 3.5944
upperneck 20.118 -3.1276 -0.175186
head 7.98622 -1.23088 -0.971323
rclavicle -5.25785e-014 -1.23246e-014
rhumerus -17.3423 56.3815 -91.7267
rradius 116.955
rwrist -23.3549
rhand -22.989 -12.187
rfingers 7.12502
rthumb 3.45368 -42.1387
lclavicle -5.25785e-014 -1.23246e-014
lhumerus -56.2442 -33.6071 115.764
lradius 68.3627
lwrist 21.8377
lhand 8.98742 21.8415
lfingers 7.12502
lthumb 34.1653 48.5884
rfemur -28.3423 1.15666 17.5006
rtibia 32.453
rfoot -26.8164 -1.66233
rtoes 38.6278
lfemur -20.9881 3.28964 -17.0826
ltibia 32.7297
lfoot -26.7601 15.0511
ltoes 26.1225
129
root 20.5953 16.8729 -19.2283 10.2508 -14.328 -2.3857
lowerback -2.6598 4.91293 -6.60154
upperback -1.12677 6.70705 0.235012
thorax -0.463059 3.39762 4.01551
lowerneck -11.0559 -2.21208 3.59455
upperneck 20.0977 -3.80025 0.135518
head 7.97387 -1.52079 -0.934691
rclavicle 3.44394e-014 -2.3059e-014
rhumerus -15.9789 56.8625 -91.1355
rradius 117.801
rwrist -24.9097
rhand -24.5063 -11.6951
rfingers 7.12502
rthumb 1.98842 -41.6656
lclavicle 3.44394e-014 -2.3059e-014
lhumerus -56.1432 -33.8523 115.612
lradius 68.0572
lwrist 21.9141
lhand 7.85049 21.7873
lfingers 7.12502
lthumb 33.0849 48.7695
rfemur -28.6522 0.369233 17.7496
rtibia 32.7285
rfoot -26.8953 -1.28891
rtoes 39.1714
lfemur -21.0943 3.54701 -17.1123
ltibia 32.9045
lfoot -26.779 15.2641
ltoes 25.874
130
root 20.6107 16.8676 -19.2431 10.2801 -14.7693 -2.43755
lowerback -2.60012 4.99878 -6.66567
upperback -1.12196 6.81836 0.150152
thorax -0.501651 3.45397 3.95687
lowerneck -11.0247 -2.63658 3.58187
upperneck 20.0526 -4.44989 0.451921
head 7.95084 -1.80102 -0.890857
rclavicle 2.38045e-014 -1.27222e-014
rhumerus -14.7808 57.2528 -90.6748
rradius 118.652
rwrist -26.4458
rhand -24.832 -11.1933
rfingers 7.12502
rthumb 1.67379 -41.1665
lclavicle 2.38045e-014 -1.27222e-014
lhumerus -56.0354 -34.1229 115.475
lradius 67.7612
lwrist 21.9596
lhand 6.86568 21.7386
lfingers 7.12502
lthumb 32.1478 48.9148
rfemur -28.9486 -0.497496 18.0141
rtibia 33.0247
rfoot -26.9562 -1.17651
rtoes 39.5771
lfemur -21.2076 3.77719 -17.1447
ltibia 33.0879
lfoot -26.7285 15.5046
ltoes 25.349
